<svg width="45" height="45" viewBox="0 0 45 45" fill="none" xmlns="http://www.w3.org/2000/svg">
<path d="M20.1562 11.5625H24.8438C25.2752 11.5625 25.625 11.9123 25.625 12.3438V13.9062H19.375V12.3438C19.375 11.9123 19.7248 11.5625 20.1562 11.5625ZM27.1875 13.9062V12.3438C27.1875 11.0493 26.1382 10 24.8438 10H20.1562C18.8618 10 17.8125 11.0493 17.8125 12.3438V13.9062H13.9151C13.9098 13.9062 13.9045 13.9062 13.8991 13.9062H12.3438C11.9123 13.9062 11.5625 14.256 11.5625 14.6875C11.5625 15.119 11.9123 15.4688 12.3438 15.4688H13.185L14.5174 32.1242C14.6474 33.7483 16.0032 35 17.6325 35H27.3675C28.9968 35 30.3526 33.7483 30.4826 32.1242L31.815 15.4688H32.6562C33.0877 15.4688 33.4375 15.119 33.4375 14.6875C33.4375 14.256 33.0877 13.9062 32.6562 13.9062H31.1009C31.0955 13.9062 31.0902 13.9062 31.0849 13.9062H27.1875ZM30.2475 15.4688L28.925 31.9996C28.8601 32.8116 28.1821 33.4375 27.3675 33.4375H17.6325C16.8179 33.4375 16.1399 32.8116 16.075 31.9996L14.7525 15.4688H30.2475ZM18.5479 17.0326C18.9786 17.0073 19.3483 17.3359 19.3737 17.7666L20.1549 31.0479C20.1802 31.4786 19.8516 31.8483 19.4209 31.8737C18.9901 31.899 18.6204 31.5704 18.5951 31.1396L17.8138 17.8584C17.7885 17.4276 18.1171 17.0579 18.5479 17.0326ZM26.4521 17.0326C26.8829 17.0579 27.2115 17.4276 27.1862 17.8584L26.4049 31.1396C26.3796 31.5704 26.0099 31.899 25.5791 31.8737C25.1484 31.8483 24.8198 31.4786 24.8451 31.0479L25.6263 17.7666C25.6517 17.3359 26.0214 17.0073 26.4521 17.0326ZM22.5 17.0312C22.9315 17.0312 23.2812 17.381 23.2812 17.8125V31.0938C23.2812 31.5252 22.9315 31.875 22.5 31.875C22.0685 31.875 21.7188 31.5252 21.7188 31.0938V17.8125C21.7188 17.381 22.0685 17.0312 22.5 17.0312Z" fill="#AFAFAF"/>
</svg>
