<svg width="45" height="45" viewBox="0 0 45 45" fill="none" xmlns="http://www.w3.org/2000/svg">
<path d="M30.3125 10H19.375C17.6491 10 16.25 11.3991 16.25 13.125C14.5241 13.125 13.125 14.5241 13.125 16.25V31.875C13.125 33.6009 14.5241 35 16.25 35H27.1875C28.9134 35 30.3125 33.6009 30.3125 31.875C32.0384 31.875 33.4375 30.4759 33.4375 28.75V13.125C33.4375 11.3991 32.0384 10 30.3125 10ZM30.3125 30.3125V16.25C30.3125 14.5241 28.9134 13.125 27.1875 13.125H17.8125C17.8125 12.2621 18.5121 11.5625 19.375 11.5625H30.3125C31.1754 11.5625 31.875 12.2621 31.875 13.125V28.75C31.875 29.6129 31.1754 30.3125 30.3125 30.3125ZM14.6875 16.25C14.6875 15.3871 15.3871 14.6875 16.25 14.6875H27.1875C28.0504 14.6875 28.75 15.3871 28.75 16.25V31.875C28.75 32.7379 28.0504 33.4375 27.1875 33.4375H16.25C15.3871 33.4375 14.6875 32.7379 14.6875 31.875V16.25Z" fill="#AFAFAF"/>
</svg>
