<svg width="50" height="50" viewBox="0 0 50 50" fill="none" xmlns="http://www.w3.org/2000/svg">
<path fill-rule="evenodd" clip-rule="evenodd" d="M6 6V17H17V6H6ZM4 0C1.79086 0 0 1.79086 0 4V19C0 21.2091 1.79086 23 4 23H19C21.2091 23 23 21.2091 23 19V4C23 1.79086 21.2091 0 19 0H4Z" fill="#16354D"/>
<path fill-rule="evenodd" clip-rule="evenodd" d="M33 6V17H44V8C44 6.89543 43.1046 6 42 6H33ZM31 0C28.7909 0 27 1.79086 27 4V19C27 21.2091 28.7909 23 31 23H46C48.2091 23 50 21.2091 50 19V8C50 3.58172 46.4183 0 42 0H31Z" fill="#6B99C3"/>
<path fill-rule="evenodd" clip-rule="evenodd" d="M33 33V44H44V33H33ZM31 27C28.7909 27 27 28.7909 27 31V46C27 48.2091 28.7909 50 31 50H46C48.2091 50 50 48.2091 50 46V31C50 28.7909 48.2091 27 46 27H31Z" fill="#16354D"/>
<path fill-rule="evenodd" clip-rule="evenodd" d="M6 33V42C6 43.1046 6.89543 44 8 44H17V33H6ZM4 27C1.79086 27 0 28.7909 0 31V42C0 46.4183 3.58172 50 8 50H19C21.2091 50 23 48.2091 23 46V31C23 28.7909 21.2091 27 19 27H4Z" fill="#6B99C3"/>
</svg>
